<svg aria-hidden="true" style="position: absolute; width: 0; height: 0; overflow: hidden;" version="1.1" xmlns="http://www.w3.org/2000/svg" xmlns:xlink="http://www.w3.org/1999/xlink">
<defs>
<symbol id="icon-outlook" viewBox="0 0 32 32">
<path fill="#0072c6" style="fill: var(--color1, #0072c6)" d="M32 9.849v13.971c0 0.307-0.107 0.565-0.317 0.768-0.211 0.205-0.469 0.307-0.773 0.307h-11.396v-9.279l2.133 1.639c0.136 0.113 0.305 0.168 0.505 0.168 0.197 0 0.369-0.055 0.519-0.169zM19.513 7.155h11.396c0.281 0 0.524 0.084 0.724 0.256 0.2 0.171 0.312 0.4 0.331 0.68l-9.825 7.835-2.625-2.065zM17.872 1.152v29.695l-17.872-3.088v-23.433l17.875-3.173zM12.473 16.059c-0.027-1.511-0.417-2.763-1.172-3.752-0.74-0.987-1.7-1.508-2.841-1.552-1.099 0.044-2.039 0.564-2.8 1.552-0.76 0.989-1.14 2.243-1.16 3.752 0.020 1.489 0.42 2.729 1.18 3.721 0.761 0.987 1.699 1.511 2.801 1.568 1.14-0.047 2.099-0.565 2.86-1.56 0.76-0.997 1.16-2.24 1.18-3.729zM8.313 12.749c0.575 0.027 1.059 0.341 1.444 0.956 0.38 0.615 0.58 1.393 0.58 2.336 0 0.961-0.199 1.743-0.58 2.361-0.401 0.619-0.88 0.939-1.461 0.939s-1.060-0.301-1.46-0.92-0.58-1.4-0.58-2.339c0-0.94 0.18-1.721 0.58-2.32 0.379-0.6 0.861-0.92 1.441-0.961z"></path>
</symbol>
<symbol id="icon-windows" viewBox="0 0 32 32">
<path fill="#0078d6" style="fill: var(--color2, #0078d6)" d="M0 4.599l13-1.799v12.601h-13zM14.599 2.599l17.401-2.599v15.2h-17.401zM0 16.8h13v12.601l-13-1.803zM14.599 16.8h17.401v15.2l-17.2-2.401z"></path>
</symbol>
<symbol id="icon-powerpoint" viewBox="0 0 32 32">
<path fill="#d24726" style="fill: var(--color3, #d24726)" d="M31.312 5.333h-11.389v4.248c0.687-0.52 1.509-0.784 2.473-0.784v4.131h4.099c-0.020 1.159-0.42 2.136-1.201 2.924-0.779 0.789-1.757 1.195-2.917 1.221-0.9-0.027-1.72-0.297-2.439-0.82v2.839h8.959v1.393h-8.961v1.724h8.953v1.376h-8.959v3.12h11.391c0.461 0 0.68-0.243 0.68-0.716v-19.976c0-0.456-0.219-0.68-0.68-0.68zM23.040 12.248v-4.165c1.16 0.027 2.133 0.429 2.917 1.213 0.781 0.784 1.188 1.768 1.208 2.952zM11.008 12.317c-0.071-0.268-0.187-0.476-0.351-0.629-0.16-0.149-0.376-0.259-0.644-0.328-0.3-0.081-0.609-0.12-0.92-0.12l-0.96 0.019v3.999h0.035c0.348 0.021 0.713 0.021 1.1 0 0.38-0.020 0.74-0.12 1.079-0.3 0.417-0.3 0.667-0.7 0.748-1.219 0.080-0.521 0.052-1.021-0.085-1.481zM0 4.079v23.928l18.251 3.153v-30.32zM13.617 14.861c-0.5 1.159-1.247 1.9-2.245 2.22-0.999 0.319-2.077 0.443-3.239 0.372v4.563l-2.401-0.279v-12.536l3.812-0.199c0.707-0.044 1.405 0.033 2.088 0.24 0.687 0.203 1.229 0.612 1.631 1.229 0.4 0.615 0.625 1.328 0.68 2.14 0.049 0.812-0.057 1.563-0.325 2.249z"></path>
</symbol>
<symbol id="icon-linkedin" viewBox="0 0 32 32">
<path fill="#0077b5" style="fill: var(--color4, #0077b5)" d="M27.263 27.269h-4.739v-7.425c0-1.771-0.036-4.049-2.469-4.049-2.471 0-2.848 1.927-2.848 3.919v7.556h-4.739v-15.269h4.552v2.081h0.061c0.636-1.2 2.183-2.467 4.493-2.467 4.801 0 5.689 3.16 5.689 7.273zM7.116 9.911c-1.525 0-2.751-1.235-2.751-2.753 0-1.517 1.227-2.751 2.751-2.751 1.52 0 2.752 1.233 2.752 2.751 0 1.519-1.233 2.753-2.752 2.753zM9.492 27.269h-4.752v-15.269h4.752zM29.633 0h-27.272c-1.305 0-2.361 1.032-2.361 2.305v27.389c0 1.275 1.056 2.305 2.361 2.305h27.268c1.304 0 2.371-1.031 2.371-2.305v-27.389c0-1.273-1.067-2.305-2.371-2.305z"></path>
</symbol>
<symbol id="icon-gmail" viewBox="0 0 32 32">
<path fill="#d14836" style="fill: var(--color5, #d14836)" d="M32 6v20c0 1.133-0.867 2-2 2h-2v-18.151l-12 8.617-12-8.617v18.151h-2c-1.135 0-2-0.867-2-2v-20c0-0.567 0.216-1.067 0.575-1.424 0.359-0.363 0.86-0.576 1.425-0.576h0.667l13.333 9.667 13.333-9.667h0.667c0.567 0 1.067 0.216 1.425 0.576 0.36 0.357 0.575 0.857 0.575 1.424z"></path>
</symbol>
<symbol id="icon-excel" viewBox="0 0 32 32">
<path fill="#217346" style="fill: var(--color6, #217346)" d="M31.404 4.136h-10.72v1.984h3.16v3.139h-3.16v1h3.16v3.143h-3.16v1.028h3.16v2.972h-3.16v1.191h3.16v2.979h-3.16v1.191h3.16v2.996h-3.16v2.185h10.72c0.169-0.051 0.311-0.251 0.424-0.597 0.113-0.349 0.172-0.633 0.172-0.848v-21.999c0-0.171-0.059-0.273-0.172-0.309-0.113-0.035-0.255-0.053-0.424-0.053zM30.013 25.755h-5.143v-2.993h5.143v2.996zM30.013 21.571h-5.143v-2.98h5.143zM30.013 17.4h-5.143v-2.959h5.143v2.961zM30.013 13.4h-5.143v-3.139h5.143v3.14zM30.013 9.241h-5.143v-3.12h5.143v3.14zM0 3.641v24.801l18.88 3.265v-31.416l-18.88 3.36zM11.191 22.403c-0.072-0.195-0.411-1.021-1.011-2.484-0.599-1.461-0.96-2.312-1.065-2.555h-0.033l-2.025 4.82-2.707-0.183 3.211-6-2.94-6 2.76-0.145 1.824 4.695h0.036l2.060-4.908 2.852-0.18-3.396 6.493 3.5 6.624-3.065-0.18z"></path>
</symbol>
<symbol id="icon-word" viewBox="0 0 32 32">
<path fill="#2b579a" style="fill: var(--color7, #2b579a)" d="M31.999 4.977v22.063c0 0.188-0.067 0.34-0.199 0.461-0.135 0.125-0.295 0.184-0.48 0.184h-11.412v-3.060h9.309v-1.393h-9.317v-1.705h9.309v-1.392h-9.303v-1.72h9.307v-1.376h-9.307v-1.724h9.307v-1.392h-9.307v-1.705h9.307v-1.391h-9.307v-1.74h9.307v-1.325h-9.307v-3.457h11.416c0.199 0 0.36 0.064 0.477 0.199 0.14 0.132 0.2 0.293 0.199 0.475zM18.2 0.855v30.296l-18.2-3.149v-23.912l18.2-3.24zM15.453 9.799l-2.279 0.14-1.461 9.047h-0.033c-0.072-0.428-0.34-1.927-0.82-4.489l-0.852-4.351-2.139 0.107-0.856 4.244c-0.5 2.472-0.779 3.911-0.852 4.315h-0.020l-1.3-8.333-1.96 0.104 2.1 10.511 2.179 0.14 0.82-4.091c0.48-2.4 0.76-3.795 0.82-4.176h0.060c0.081 0.407 0.341 1.832 0.82 4.28l0.82 4.211 2.36 0.14 2.64-11.8z"></path>
</symbol>
<symbol id="icon-vodafone" viewBox="0 0 32 32">
<path fill="#e60000" style="fill: var(--color8, #e60000)" d="M16 0c-8.837 0-16 7.163-16 16v0c0 8.837 7.163 16 16 16v0c8.837 0 16-7.163 16-16v0c0-8.837-7.163-16-16-16v0zM21.667 1.493c0.427 0 0.867 0.040 1.147 0.133-2.893 0.6-5.2 3.293-5.187 6.373 0 0.067 0 0.147 0.013 0.227 4.853 1.187 7.027 4.107 7.027 8.147 0.053 4.040-3.147 8.48-8.547 8.493-4.36 0.013-8.907-3.72-8.933-9.707-0.013-3.96 2.147-7.773 4.867-10.027 2.667-2.213 6.307-3.627 9.613-3.64z"></path>
</symbol>
<symbol id="icon-phone" viewBox="0 0 32 32">
<path  fill="#8dd6f9" style="fill: var(--color1, #8dd6f9)" d="M22 20c-2 2-2 4-4 4s-4-2-6-4-4-4-4-6 2-2 4-4-4-8-6-8-6 6-6 6c0 4 4.109 12.109 8 16s12 8 16 8c0 0 6-4 6-6s-6-8-8-6z"></path>
</symbol>
</defs>
</svg>
